
<svg width="110" height="111" viewBox="0 0 110 111" fill="none" xmlns="http://www.w3.org/2000/svg">
<circle cx="55" cy="55.75" r="48.5" fill="#98D6ED" stroke="#182020" stroke-width="3" stroke-dasharray="4 4"/>
<circle cx="55" cy="55.75" r="40" fill="white"/>
<path d="M54.9998 26.75C49.6974 26.756 44.6138 28.8472 40.8644 32.5649C37.115 36.2826 35.006 41.3232 35 46.5807C35 53.6693 37.3067 56.2144 39.5374 58.6757C41.7361 61.102 43.813 63.3939 43.813 71.3928C43.813 71.8741 44.0059 72.3357 44.3491 72.676C44.6923 73.0163 45.1578 73.2075 45.6432 73.2075H65.0098C65.4952 73.2075 65.9608 73.0163 66.304 72.676C66.6472 72.3357 66.84 71.8741 66.84 71.3928C66.84 63.2354 68.8279 60.7614 70.9327 58.1428C72.9322 55.6545 75 53.0816 75 46.5807C74.994 41.3231 72.885 36.2825 69.1355 32.5648C65.386 28.8471 60.3024 26.7559 54.9998 26.75ZM56.6052 52.1839C56.6082 52.3948 56.5688 52.6041 56.4895 52.7998C56.4101 52.9954 56.2923 53.1735 56.143 53.3236C55.9936 53.4738 55.8157 53.593 55.6195 53.6744C55.4233 53.7558 55.2127 53.7977 55 53.7977C54.7873 53.7977 54.5767 53.7558 54.3805 53.6744C54.1843 53.593 54.0064 53.4738 53.857 53.3236C53.7077 53.1735 53.5899 52.9954 53.5105 52.7998C53.4312 52.6041 53.3918 52.3948 53.3948 52.1839V45.1323C53.3918 44.9214 53.4312 44.7121 53.5105 44.5164C53.5899 44.3208 53.7077 44.1427 53.857 43.9926C54.0064 43.8424 54.1843 43.7232 54.3805 43.6418C54.5767 43.5605 54.7873 43.5186 55 43.5186C55.2127 43.5186 55.4233 43.5605 55.6195 43.6418C55.8157 43.7232 55.9936 43.8424 56.143 43.9926C56.2923 44.1427 56.4101 44.3208 56.4895 44.5164C56.5688 44.7121 56.6082 44.9214 56.6052 45.1323V52.1839ZM68.0699 55.8808C65.9313 58.5423 63.5268 61.5345 63.2138 69.5781H56.8301V57.073C57.837 56.7024 58.7057 56.0355 59.3197 55.1617C59.9337 54.2879 60.2638 53.2489 60.2656 52.1839V45.1323C60.2709 44.4433 60.1386 43.7601 59.8764 43.1221C59.6141 42.484 59.2271 41.9037 58.7376 41.4147C58.2481 40.9256 57.6659 40.5375 57.0244 40.2726C56.3829 40.0077 55.6949 39.8714 55 39.8714C54.3051 39.8714 53.6171 40.0077 52.9756 40.2726C52.3341 40.5375 51.7519 40.9256 51.2624 41.4147C50.7729 41.9037 50.3859 42.484 50.1236 43.1221C49.8614 43.7601 49.7291 44.4433 49.7344 45.1323V52.1839C49.7362 53.2489 50.0662 54.2878 50.6802 55.1616C51.2942 56.0354 52.1628 56.7023 53.1696 57.073V69.5787H47.435C47.0995 61.594 44.5372 58.7652 42.2583 56.2504C40.249 54.031 38.6604 52.2786 38.6604 46.5807C38.6511 44.4473 39.0669 42.333 39.8839 40.3593C40.7008 38.3856 41.9029 36.5913 43.4211 35.0794C44.9393 33.5676 46.7437 32.3679 48.7307 31.5494C50.7178 30.7308 52.8483 30.3094 55 30.3094C57.1517 30.3094 59.2822 30.7308 61.2693 31.5494C63.2563 32.3679 65.0607 33.5676 66.5789 35.0794C68.0971 36.5913 69.2992 38.3856 70.1161 40.3593C70.9331 42.333 71.3489 44.4473 71.3396 46.5807C71.3396 51.8122 69.8959 53.6094 68.0699 55.8808ZM64.555 76.6996C64.555 77.1809 64.3622 77.6425 64.019 77.9828C63.6758 78.3231 63.2102 78.5143 62.7248 78.5143H47.2752C46.7898 78.5143 46.3243 78.3231 45.981 77.9828C45.6378 77.6425 45.445 77.1809 45.445 76.6996C45.445 76.2183 45.6378 75.7567 45.981 75.4164C46.3243 75.0761 46.7898 74.8849 47.2752 74.8849H62.7248C63.2102 74.8849 63.6758 75.0761 64.019 75.4164C64.3622 75.7567 64.555 76.2183 64.555 76.6996ZM62.4244 81.9353C62.4244 82.4166 62.2315 82.8782 61.8883 83.2185C61.5451 83.5588 61.0796 83.75 60.5942 83.75H49.4061C48.9207 83.75 48.4552 83.5588 48.112 83.2185C47.7688 82.8782 47.5759 82.4166 47.5759 81.9353C47.5759 81.454 47.7688 80.9924 48.112 80.6521C48.4552 80.3118 48.9207 80.1206 49.4061 80.1206H60.5942C61.0796 80.1206 61.5451 80.3118 61.8883 80.6521C62.2315 80.9924 62.4244 81.454 62.4244 81.9353Z" fill="#151618"/>
</svg>
