<svg width="110" height="111" viewBox="0 0 110 111" fill="none" xmlns="http://www.w3.org/2000/svg">
<circle cx="55" cy="55.75" r="48.5" fill="#F9DC54" stroke="#182020" stroke-width="3" stroke-dasharray="4 4"/>
<circle cx="55" cy="55.75" r="38" fill="white"/>
<path d="M58.442 74.286H41V69.645C44.621 69.135 47.069 65.973 47.069 62.199C47.069 60.669 46.712 59.139 46.253 57.66H41.255V53.733H44.876C44.213 51.897 43.703 49.959 43.703 47.97C43.703 41.442 48.548 36.75 55.79 36.75C62.624 36.75 67.418 40.728 67.826 47.358H62.777C62.471 43.329 59.819 41.238 55.637 41.238C51.302 41.238 48.548 43.788 48.548 47.919C48.548 49.908 49.16 51.795 49.823 53.733H62.012V57.66H51.2C51.608 59.037 51.863 60.465 51.863 62.046C51.863 65.361 50.333 68.421 47.477 69.645H57.83C62.828 69.645 64.562 67.248 64.613 62.454H69.407C69.407 70.104 65.633 74.286 58.442 74.286Z" fill="#151618"/>
</svg>